HIERARCHY
ROOT root
{
	OFFSET 0.000000 0.000000 0.000000
	CHANNELS 6 Xposition Yposition Zposition Zrotation Yrotation Xrotation
	JOINT lhip
	{
		OFFSET 0.058581 -0.082280 -0.017664
		CHANNELS 3 Zrotation Yrotation Xrotation
		JOINT lknee
		{
			OFFSET 0.043451 -0.386469 0.008037
			CHANNELS 3 Zrotation Yrotation Xrotation
			JOINT lankle
			{
				OFFSET -0.014790 -0.426874 -0.037428
				CHANNELS 3 Zrotation Yrotation Xrotation
				JOINT ltoe
				{
					OFFSET 0.041054 -0.060286 0.122042
					CHANNELS 3 Zrotation Yrotation Xrotation
					End Site
					{
						OFFSET 0.000000 0.000000 0.000000
					}
				}
			}
		}
	}
	JOINT rhip
	{
		OFFSET -0.060310 -0.090513 -0.013543
		CHANNELS 3 Zrotation Yrotation Xrotation
		JOINT rknee
		{
			OFFSET -0.043257 -0.383688 -0.004843
			CHANNELS 3 Zrotation Yrotation Xrotation
			JOINT rankle
			{
				OFFSET 0.019056 -0.420046 -0.034562
				CHANNELS 3 Zrotation Yrotation Xrotation
				JOINT rtoe
				{
					OFFSET -0.034840 -0.062106 0.130323
					CHANNELS 3 Zrotation Yrotation Xrotation
					End Site
					{
						OFFSET 0.000000 0.000000 0.000000
					}
				}
			}
		}
	}
	JOINT lowerback
	{
		OFFSET 0.004439 0.124404 -0.038385
		CHANNELS 3 Zrotation Yrotation Xrotation
		JOINT upperback
		{
			OFFSET 0.004488 0.137956 0.026820
			CHANNELS 3 Zrotation Yrotation Xrotation
			JOINT chest
			{
				OFFSET -0.002265 0.056032 0.002855
				CHANNELS 3 Zrotation Yrotation Xrotation
				JOINT lowerneck
				{
					OFFSET -0.013390 0.211636 -0.033468
					CHANNELS 3 Zrotation Yrotation Xrotation
					JOINT upperneck
					{
						OFFSET 0.010113 0.088937 0.050410
						CHANNELS 3 Zrotation Yrotation Xrotation
						End Site
						{
							OFFSET 0.000000 0.000000 0.000000
						}
					}
				}
				JOINT lclavicle
				{
					OFFSET 0.071702 0.114000 -0.018898
					CHANNELS 3 Zrotation Yrotation Xrotation
					JOINT lshoulder
					{
						OFFSET 0.122921 0.045205 -0.019046
						CHANNELS 3 Zrotation Yrotation Xrotation
						JOINT lelbow
						{
							OFFSET 0.255332 -0.015649 -0.022946
							CHANNELS 3 Zrotation Yrotation Xrotation
							JOINT lwrist
							{
								OFFSET 0.265709 0.012698 -0.007375
								CHANNELS 3 Zrotation Yrotation Xrotation
								End Site
								{
									OFFSET 0.000000 0.000000 0.000000
								}
							}
						}
					}
				}
				JOINT rclavicle
				{
					OFFSET -0.082954 0.112472 -0.023707
					CHANNELS 3 Zrotation Yrotation Xrotation
					JOINT rshoulder
					{
						OFFSET -0.113228 0.046853 -0.008472
						CHANNELS 3 Zrotation Yrotation Xrotation
						JOINT relbow
						{
							OFFSET -0.260127 -0.014369 -0.031269
							CHANNELS 3 Zrotation Yrotation Xrotation
							JOINT rwrist
							{
								OFFSET -0.269108 0.006794 -0.006027
								CHANNELS 3 Zrotation Yrotation Xrotation
								End Site
								{
									OFFSET 0.000000 0.000000 0.000000
								}
							}
						}
					}
				}
			}
		}
	}
}
MOTION
Frames: 13
Frame Time: 0.033333
0.068158 2.291446 0.986905 179.867635 4.469121 92.275987 4.514550 -2.529648 -10.425883 -8.778774 -11.204552 20.774995 0.837071 8.942216 -18.361578 0.000000 -0.000000 0.000000 4.497894 7.071579 -21.789237 7.759981 12.629882 14.073431 15.670893 12.987937 7.978411 0.000000 -0.000000 0.000000 -2.560743 1.474818 15.282041 0.991534 0.770727 -5.547414 1.496771 0.511991 -0.646237 6.631585 20.394023 1.437247 0.293580 14.148792 6.317633 -22.967248 2.863014 -1.713617 -48.765131 -0.135443 7.491122 13.688933 -20.459415 -3.888253 11.781473 -8.156076 2.946414 24.018031 3.429896 1.550528 49.505891 15.823145 15.428663 -9.573705 37.687827 1.441948 -6.191529 5.021136 -13.821357 
0.062971 2.280149 0.985620 177.649267 4.357302 92.583682 3.657637 -2.190254 -11.787501 -8.236083 -9.440697 21.041720 2.130602 9.798027 -17.682295 0.000000 -0.000000 0.000000 4.101252 6.217343 -22.821501 7.834266 11.758334 13.208282 17.170587 13.580463 9.687599 0.000000 -0.000000 0.000000 -2.498351 1.641662 15.769617 1.007779 0.242382 -5.926094 1.626978 -0.096206 -0.494547 5.796805 19.845289 1.254118 0.435005 14.114041 5.461742 -22.637632 1.376167 -1.700506 -47.670572 -2.171237 6.935687 15.243006 -20.081298 -5.928217 11.924683 -8.046624 3.524987 23.692432 3.057281 1.559447 49.843459 14.931978 14.932923 -10.543909 37.160067 0.507599 -5.525613 4.905172 -14.041633 
0.057730 2.268108 0.983616 175.363622 4.251473 92.819088 2.968302 -1.802899 -13.123076 -8.031957 -8.473158 21.455127 3.178247 10.575788 -17.459810 0.000000 -0.000000 0.000000 3.290225 5.493905 -24.605534 8.294409 9.963917 13.615355 19.645095 14.023436 11.052717 0.000000 -0.000000 0.000000 -2.203584 1.849139 16.399426 0.899043 0.044244 -6.285605 1.637597 -0.662813 -0.280940 4.840694 19.499392 0.736997 0.496134 13.812964 4.241040 -22.116431 0.213815 -1.914310 -46.784285 -4.280591 6.393322 16.798417 -20.382451 -8.488189 12.689417 -8.025958 3.360879 23.486887 2.509881 1.279561 50.056187 14.127857 14.547070 -11.268998 36.725822 -0.400586 -5.007415 4.851903 -13.710455 
0.052406 2.255111 0.981246 173.014060 4.195391 93.032377 2.533513 -1.389648 -14.607453 -8.043535 -7.646846 22.081188 3.883210 11.075301 -17.602269 0.000000 -0.000000 0.000000 2.520398 4.975956 -27.291292 8.571140 6.748351 15.888544 21.924311 13.034121 11.039877 0.000000 -0.000000 0.000000 -1.725877 1.908768 17.287877 0.699002 0.207638 -6.722072 1.483724 -1.101633 -0.145115 3.837128 19.238644 -0.189830 0.516975 13.395884 2.752581 -21.451393 -0.489703 -2.127058 -46.233254 -6.266901 5.914526 18.293049 -21.546842 -11.030179 13.860633 -8.110870 2.588988 23.360302 1.898961 0.786585 50.251556 13.455038 14.394164 -11.850055 36.327257 -1.291327 -4.656624 4.871646 -12.963290 
0.047187 2.241393 0.978977 170.668649 4.214907 93.197139 2.356807 -0.923181 -16.258197 -8.096390 -6.558800 22.926376 4.325440 11.254584 -17.641875 0.000000 -0.000000 0.000000 2.156688 4.799595 -30.217488 8.248685 2.926837 19.870344 22.318487 10.945144 9.002215 0.000000 -0.000000 0.000000 -1.322520 1.681215 18.325820 0.539803 0.563392 -7.217771 1.311793 -1.271110 -0.166251 2.950055 18.962445 -1.344220 0.531497 13.016861 1.438800 -20.904435 -0.807106 -2.246478 -45.958585 -7.703084 5.523967 19.578170 -23.481866 -12.795582 15.019610 -8.468278 1.872901 23.196820 1.614338 0.394055 50.573884 12.880964 14.363507 -12.471762 35.789678 -2.225263 -4.530168 5.000780 -11.977998 
0.042390 2.227776 0.977546 168.448293 4.250569 93.202902 2.352168 -0.416805 -17.653815 -8.137218 -5.428573 23.516079 4.547817 11.334278 -17.296529 0.000000 -0.000000 0.000000 2.047371 4.719368 -32.316209 7.583506 -0.761170 25.306326 20.318055 8.313517 4.699554 0.000000 -0.000000 0.000000 -1.142120 1.298432 19.125990 0.489014 0.895479 -7.572138 1.211593 -1.196008 -0.287156 2.406512 18.614728 -2.251903 0.499428 12.718236 0.684821 -20.700647 -0.986034 -2.219794 -45.898925 -8.363523 5.254288 20.390040 -25.485484 -13.449288 15.676010 -8.729811 1.158455 23.047040 1.869982 0.413533 50.979660 12.316888 14.243840 -13.185398 35.066929 -3.179688 -4.526091 5.127895 -10.970248 
0.038175 2.214931 0.977771 166.490133 4.159997 92.936440 2.216245 0.056066 -18.226625 -8.050475 -4.674507 23.283194 4.648366 11.518192 -16.600327 0.000000 -0.000000 0.000000 1.718337 4.310664 -32.758829 6.443215 -4.661441 31.981581 16.460195 3.941099 -1.841602 0.000000 -0.000000 0.000000 -1.061123 1.005751 19.472099 0.410692 1.162663 -7.750398 1.079389 -1.110646 -0.348889 2.340105 18.090072 -2.716400 0.415286 12.444614 0.820207 -20.861820 -1.136310 -1.931400 -46.082311 -8.537066 5.100315 20.498475 -26.801448 -13.026204 15.974670 -8.487508 0.028367 23.089596 2.422463 0.627411 51.395456 11.574133 14.135434 -13.780021 34.156833 -4.041804 -4.651915 5.162409 -10.051865 
0.034417 2.202852 0.979708 164.878373 3.935840 92.451218 1.812076 0.344383 -17.934880 -7.666316 -4.334951 22.097412 4.708873 11.807888 -15.543428 0.000000 -0.000000 0.000000 0.973031 3.351621 -31.372515 4.420817 -8.407730 39.095681 12.373698 -2.039712 -8.705582 0.000000 -0.000000 0.000000 -0.955058 0.872262 19.327014 0.297891 1.321877 -7.813992 0.846155 -0.995123 -0.266968 2.605266 17.412268 -3.111066 0.531761 12.022117 2.235490 -21.296647 -1.231273 -1.369863 -46.664243 -8.527036 5.034433 19.941868 -27.242195 -11.696055 15.945031 -7.998554 -1.238420 23.303716 2.809137 0.875448 51.802555 10.742599 14.052684 -14.030900 33.237422 -4.454490 -4.621457 5.187762 -9.349759 
0.030988 2.190929 0.982787 163.588703 3.715920 91.945534 1.436524 0.269883 -17.280566 -7.102921 -4.068168 20.319395 4.652048 12.102792 -14.109273 0.000000 -0.000000 0.000000 -0.063164 2.060907 -28.429194 2.333960 -10.438148 45.561587 9.687456 -6.403329 -12.910521 0.000000 -0.000000 0.000000 -0.674819 0.978126 18.728960 0.221644 1.279288 -7.680269 0.530827 -0.806323 -0.210562 2.874194 16.672153 -3.303003 0.823075 11.405545 4.093321 -21.882159 -1.127547 -0.862528 -47.709931 -8.240543 5.214528 18.868679 -27.258326 -9.878805 15.539487 -7.715100 -1.931274 23.527861 2.771389 1.070395 52.132596 9.926331 13.948031 -13.693449 32.604819 -4.114464 -4.252414 5.249007 -8.858674 
0.028113 2.178540 0.986003 162.626894 3.546818 91.554720 1.295926 -0.125278 -16.751747 -6.594617 -3.679931 18.434507 4.468851 12.357494 -12.515507 0.000000 -0.000000 0.000000 -1.170157 0.977042 -24.318936 1.543370 -10.289276 50.425154 8.759263 -7.202395 -14.283686 0.000000 -0.000000 0.000000 -0.313917 1.352542 17.700983 0.262634 1.037607 -7.254084 0.209665 -0.578599 -0.270032 3.089381 15.961257 -2.899304 0.979684 10.828657 5.325477 -22.455096 -0.723496 -0.661474 -49.056212 -7.594046 5.839168 17.229262 -27.236454 -7.669064 14.931082 -7.734423 -2.129130 23.684240 2.308177 1.189692 52.276272 9.154111 13.889095 -12.704603 32.386684 -3.024791 -3.780339 5.347163 -8.505344 
0.026171 2.164893 0.988312 161.999651 3.326005 91.309129 1.306811 -0.595491 -16.655928 -6.283218 -3.167395 16.896651 4.335608 12.519638 -11.141987 0.000000 -0.000000 0.000000 -2.222984 0.391180 -19.714383 2.020608 -8.910482 53.577807 8.999889 -6.152376 -13.748819 0.000000 -0.000000 0.000000 -0.189478 1.960463 16.371962 0.448196 0.726957 -6.697425 -0.040521 -0.371400 -0.315262 3.325594 15.167795 -2.091307 0.891793 10.437347 5.841825 -22.937189 -0.063805 -0.671872 -50.280680 -6.813895 6.774053 15.006243 -27.246191 -5.011626 14.315723 -7.882852 -2.245858 23.839550 1.536726 1.153132 52.240702 8.364495 14.082173 -11.420809 32.460085 -1.761321 -3.452781 5.494361 -8.079259 
0.025454 2.149438 0.989115 161.692682 2.985990 91.131455 1.413220 -0.937895 -17.155031 -6.260026 -2.510446 16.130699 4.328839 12.502552 -10.173672 0.000000 -0.000000 0.000000 -3.042618 0.187013 -14.934746 3.222283 -6.904670 54.985790 9.428883 -4.753556 -12.377636 0.000000 -0.000000 0.000000 -0.138707 2.997853 15.083029 0.578235 0.390128 -6.276174 -0.403218 -0.370152 -0.320511 3.560139 14.352602 -1.446990 0.933933 9.830063 6.344630 -23.271472 0.436465 -0.513452 -50.943665 -6.073997 7.708561 12.573163 -27.148770 -2.436695 13.615533 -7.993683 -2.386041 24.195024 0.601794 0.929597 52.139971 7.362500 14.431482 -10.333622 32.736700 -0.654514 -3.175104 5.660938 -7.696954 
0.025686 2.132171 0.988050 161.699357 2.588683 90.886850 1.704482 -1.143137 -18.357097 -6.577339 -1.648043 16.549482 4.385009 12.233801 -9.630160 0.000000 -0.000000 0.000000 -3.567417 -0.015467 -9.842609 4.601005 -4.566179 54.291628 9.768540 -3.271222 -10.529518 0.000000 -0.000000 0.000000 0.043908 4.387741 14.075711 0.545149 -0.062049 -5.936591 -0.890114 -0.577391 -0.385100 3.654977 13.610320 -0.953535 1.198657 9.037064 6.802488 -23.567153 0.530074 -0.081587 -50.941261 -5.281304 8.337891 10.552147 -26.952337 -0.574729 12.751289 -7.983774 -2.395739 24.725187 -0.208477 0.677404 51.992746 6.193602 14.644182 -9.559266 33.131556 0.288860 -2.839659 5.733058 -7.503508 
